<svg width="50" height="46" viewBox="0 0 50 46" fill="none" xmlns="http://www.w3.org/2000/svg">
<path d="M0.0400391 0.847994C0.0400391 14.576 0.0400391 28.2 0.0400391 41.928C7.84004 40.784 16.16 42.136 23.96 45.568V4.48799C16.16 1.05599 7.84004 -0.192006 0.0400391 0.847994ZM20.424 38.288C15.12 35.792 9.60804 34.856 4.30404 35.584L3.99204 33.504C9.71204 32.672 15.64 33.712 21.256 36.312L20.424 38.288ZM20.424 29.864C15.12 27.368 9.60804 26.432 4.30404 27.16L3.99204 25.08C9.71204 24.248 15.64 25.288 21.256 27.888L20.424 29.864ZM20.424 21.544C15.12 19.048 9.60804 18.112 4.30404 18.84L3.99204 16.76C9.71204 15.928 15.64 16.968 21.256 19.568L20.424 21.544ZM21.36 11.352L20.424 13.224C15.12 10.728 9.60804 9.79199 4.30404 10.52L3.99204 8.43999C9.71204 7.71199 15.64 8.64799 21.36 11.352Z" fill="white"/>
<path d="M42.16 0.535979V9.16798V16.24L37.48 12.704L32.8 16.24V9.16798V2.09598C30.512 2.71998 28.328 3.55198 26.04 4.48798V45.464C33.84 42.032 42.16 40.68 49.96 41.824C49.96 28.2 49.96 14.472 49.96 0.847979C47.464 0.535979 44.864 0.431979 42.16 0.535979Z" fill="white"/>
</svg>
