<svg width="47" height="47" viewBox="0 0 47 47" fill="none" xmlns="http://www.w3.org/2000/svg">
<path fill-rule="evenodd" clip-rule="evenodd" d="M2.89233 12.5063H1.62695C0.723104 12.5063 2.67029e-05 13.05 2.67029e-05 13.5938V20.4813C2.67029e-05 21.025 0.723104 21.5688 1.62695 21.5688H2.89233V12.5063Z" fill="white"/>
<path fill-rule="evenodd" clip-rule="evenodd" d="M44.1077 12.5063H45.5538C46.2769 12.5063 47 13.05 47 13.5938V20.4813C47 21.025 46.2769 21.5688 45.5538 21.5688H44.1077V12.5063Z" fill="white"/>
<path fill-rule="evenodd" clip-rule="evenodd" d="M4.15767 26.2812V37.1563C4.15767 39.3313 5.96536 41.1438 8.13459 41.1438H39.0461C41.0346 41.1438 42.8423 39.3313 42.8423 37.1563V26.2812H4.15767ZM10.8461 27.7313C12.6538 27.7313 14.1 29.1813 14.1 30.9938C14.1 32.8063 12.6538 34.2563 10.8461 34.2563C9.03844 34.2563 7.59229 32.8063 7.59229 30.9938C7.59229 29.1813 9.03844 27.7313 10.8461 27.7313ZM36.1538 27.7313C34.3461 27.7313 32.9 29.1813 32.9 30.9938C32.9 32.8063 34.3461 34.2563 36.1538 34.2563C37.9615 34.2563 39.4077 32.8063 39.4077 30.9938C39.4077 29.1813 37.9615 27.7313 36.1538 27.7313Z" fill="white"/>
<path fill-rule="evenodd" clip-rule="evenodd" d="M39.0461 0H8.13459C5.96536 0 4.15767 1.8125 4.15767 3.80625V25.375H42.8423C42.8423 18.125 42.8423 11.0563 42.8423 3.80625C42.8423 1.8125 41.0346 0 39.0461 0ZM39.7692 22.8375H7.23075V7.43125H39.7692C39.7692 12.5063 39.7692 17.7625 39.7692 22.8375ZM31.8154 2.175H15.3654V5.4375H31.8154V2.175Z" fill="white"/>
<path fill-rule="evenodd" clip-rule="evenodd" d="M29.8269 42.05V44.7687C29.8269 45.675 30.55 46.4 31.4538 46.4H37.2384C38.1423 46.4 38.8654 45.675 38.8654 44.7687V42.05H29.8269Z" fill="white"/>
<path fill-rule="evenodd" clip-rule="evenodd" d="M17.1731 42.05V44.7687C17.1731 45.675 16.45 46.4 15.5462 46.4H9.76156C8.85771 46.4 8.13463 45.675 8.13463 44.7687V42.05H17.1731Z" fill="white"/>
</svg>
