<svg width="314" height="256" viewBox="0 0 314 256" fill="none" xmlns="http://www.w3.org/2000/svg">
<path opacity="0.18" d="M297.6 236.583C282.544 251.074 259.152 254.423 237.536 254.888C216.828 255.536 195.388 254.125 175.237 249.084C157.077 244.568 137.864 246.483 118.911 246.696C91.2699 247.017 61.707 246.818 38.7187 231.518C16.2414 216.6 4.23625 189.424 1.65064 162.561C1.49047 160.883 1.34555 159.213 1.23877 157.535C-1.2782 121.466 6.6922 86.3503 29.1237 57.9544C49.4882 32.1745 77.1749 11.4744 109.522 3.93112C126.942 -0.134166 145.133 -0.370608 163.087 0.270074C182.521 0.948892 202.283 2.97009 220.794 8.79725C246.399 16.8592 272.896 34.9356 280.134 60.3951C288.203 88.8444 293.794 117.408 303.069 145.819C303.9 148.382 304.739 150.945 305.555 153.523C309.605 166.283 313.144 179.219 313.564 192.482C314.067 208.416 309.498 225.142 297.6 236.583Z" fill="#F36713"/>
<path opacity="0.48" d="M297.6 236.583C282.544 251.074 259.152 254.423 237.536 254.888C216.828 255.536 195.388 254.125 175.237 249.084C157.077 244.568 137.864 246.483 118.911 246.696C91.2699 247.017 61.707 246.818 38.7187 231.518C16.2414 216.6 4.23625 189.424 1.65064 162.561C1.49047 160.883 1.34555 159.213 1.23877 157.535L305.563 153.515C309.613 166.275 313.152 179.211 313.571 192.475C314.067 208.416 309.498 225.142 297.6 236.583Z" fill="#F36713"/>
<path d="M12.5728 182.506C13.2668 185.519 16.1728 187.41 18.8881 188.882C26.4771 193.001 34.4627 196.342 42.4255 199.682L97.4632 222.739C105.853 226.263 114.373 229.817 123.342 231.511C132.426 233.227 141.754 233.036 150.998 232.761C190.858 231.732 230.786 230.71 270.394 226.118C275.603 225.516 281.659 224.257 283.864 219.513C285.847 215.265 283.52 210.01 279.798 207.157C276.076 204.304 271.325 203.282 266.733 202.337L237.956 196.403C196.769 187.914 155.582 179.417 113.961 173.575C103.954 172.171 6.63121 156.619 12.5728 182.506Z" fill="url(#paint0_linear)"/>
<path d="M45.5297 146.132C72.2248 150.808 101.025 128.223 123.922 169.143C127.186 175.664 128.124 188.92 128.361 202.299C101.002 194.481 40.7398 174.886 39.6492 173.948C37.7271 172.309 37.7271 165.871 37.8034 160.12C37.8339 157.939 41.228 152.539 45.5297 146.132Z" fill="#1A1A1A"/>
<path d="M46.6433 161.562C49.1297 161.63 56.9705 168.8 57.1611 177.846C57.3289 186.022 55.0713 193.1 52.9357 194.221L44.7746 194.862L45.7356 193.237C43.9814 190.873 42.6314 184.848 42.4865 177.815C42.2958 168.777 44.1568 161.501 46.6433 161.562Z" fill="#3F3D56"/>
<path d="M46.6433 161.562C49.1297 161.63 56.9705 168.8 57.1611 177.846C57.3289 186.022 55.0713 193.1 52.9357 194.221L44.7746 194.862L45.7356 193.237C43.9814 190.873 42.6314 184.848 42.4865 177.815C42.2958 168.777 44.1568 161.501 46.6433 161.562Z" fill="url(#paint1_linear)"/>
<path d="M39.7408 178.38C39.9315 187.418 42.1052 194.801 44.5917 194.862C47.0781 194.923 48.9391 187.654 48.7485 178.616C48.5578 169.578 46.3917 162.187 43.8976 162.126C41.4035 162.065 39.5501 169.334 39.7408 178.38Z" fill="#3F3D56"/>
<path d="M40.9535 178.425C41.0679 183.765 42.3569 188.15 43.8213 188.188C45.2857 188.226 46.3993 183.917 46.2925 178.563C46.1857 173.209 44.8891 168.838 43.417 168.8C41.945 168.762 40.8467 173.071 40.9535 178.425Z" fill="url(#paint2_linear)"/>
<path d="M41.9908 178.464C42.0442 181.042 42.662 183.154 43.3714 183.17C44.0807 183.185 44.6146 181.11 44.5612 178.532C44.5078 175.954 43.89 173.842 43.1807 173.819C42.4714 173.796 41.9908 175.878 41.9908 178.464Z" fill="#3F3D56"/>
<path d="M116.211 165.528C120.543 165.642 139.092 178.784 139.436 194.511C139.733 208.751 137.147 220.444 133.402 222.503L112.923 223.517L114.601 220.68C111.551 216.561 109.194 206.066 108.934 193.832C108.637 178.098 111.879 165.414 116.211 165.528Z" fill="#3F3D56"/>
<path d="M116.211 165.528C120.543 165.642 139.092 178.784 139.436 194.511C139.733 208.751 137.147 220.444 133.402 222.503L112.923 223.517L114.601 220.68C111.551 216.561 109.194 206.066 108.934 193.832C108.637 178.098 111.879 165.414 116.211 165.528Z" fill="url(#paint3_linear)"/>
<path d="M104.19 194.809C104.518 210.551 108.301 223.403 112.634 223.517C116.966 223.632 120.207 210.963 119.872 195.221C119.536 179.478 115.761 166.619 111.436 166.504C107.111 166.39 103.862 179.066 104.19 194.809Z" fill="#3F3D56"/>
<path d="M106.303 194.877C106.494 204.198 108.736 211.817 111.299 211.878C113.862 211.939 115.784 204.442 115.593 195.099C115.402 185.755 113.16 178.159 110.59 178.09C108.019 178.021 106.105 185.565 106.303 194.877Z" fill="url(#paint4_linear)"/>
<path d="M108.149 194.954C108.24 199.446 109.323 203.122 110.559 203.153C111.795 203.183 112.718 199.568 112.626 195.068C112.534 190.568 111.451 186.899 110.216 186.869C108.98 186.838 108.05 190.454 108.149 194.954Z" fill="#3F3D56"/>
<path d="M244.156 165.528C248.489 165.642 267.038 178.784 267.381 194.511C267.679 208.751 265.055 220.444 261.348 222.503L240.9 223.502L242.578 220.665C239.527 216.546 237.17 206.051 236.911 193.817C236.583 178.098 239.824 165.414 244.156 165.528Z" fill="#3F3D56"/>
<path d="M244.156 165.528C248.489 165.642 267.038 178.784 267.381 194.511C267.679 208.751 265.055 220.444 261.348 222.503L240.9 223.502L242.578 220.665C239.527 216.546 237.17 206.051 236.911 193.817C236.583 178.098 239.824 165.414 244.156 165.528Z" fill="url(#paint5_linear)"/>
<path d="M232.136 194.809C232.472 210.551 236.247 223.403 240.579 223.517C244.912 223.632 248.153 210.963 247.818 195.221C247.482 179.478 243.706 166.657 239.382 166.504C235.057 166.352 231.808 179.066 232.136 194.809Z" fill="#3F3D56"/>
<path d="M234.249 194.877C234.447 204.198 236.682 211.817 239.245 211.878C241.807 211.939 243.737 204.442 243.539 195.099C243.34 185.755 241.106 178.159 238.535 178.09C235.965 178.021 234.05 185.565 234.249 194.877Z" fill="url(#paint6_linear)"/>
<path d="M236.095 194.954C236.186 199.446 237.269 203.122 238.505 203.153C239.74 203.183 240.663 199.568 240.572 195.068C240.48 190.568 239.397 186.899 238.162 186.869C236.926 186.838 235.995 190.454 236.095 194.954Z" fill="#3F3D56"/>
<path d="M58.3511 162.363C61.0664 162.431 72.08 170.493 72.2783 180.355C72.4614 189.279 70.8139 196.632 68.4647 197.898L56.2612 198.699L57.3138 196.921C55.3917 194.343 53.9273 187.769 53.7672 180.096C53.607 170.234 55.6358 162.294 58.3511 162.363Z" fill="#3F3D56"/>
<path d="M58.3511 162.363C61.0664 162.431 72.08 170.493 72.2783 180.355C72.4614 189.279 70.8139 196.632 68.4647 197.898L56.2612 198.699L57.3138 196.921C55.3917 194.343 53.9273 187.769 53.7672 180.096C53.607 170.234 55.6358 162.294 58.3511 162.363Z" fill="url(#paint7_linear)"/>
<path d="M50.8154 180.706C51.029 190.576 53.3934 198.63 56.1087 198.699C58.824 198.767 60.8528 190.835 60.6469 180.965C60.4409 171.096 58.0689 163.049 55.3612 162.973C52.6536 162.897 50.6095 170.844 50.8154 180.706Z" fill="#3F3D56"/>
<path d="M52.1425 180.759C52.2645 186.602 53.6679 191.376 55.2772 191.437C56.8866 191.498 58.084 186.777 57.962 180.927C57.84 175.077 56.4366 170.318 54.8272 170.249C53.2179 170.181 52.0204 174.917 52.1425 180.759Z" fill="url(#paint8_linear)"/>
<path d="M53.3017 180.805C53.3551 183.62 54.0645 185.923 54.8272 185.938C55.5899 185.954 56.1848 183.688 56.1314 180.874C56.078 178.059 55.3687 175.756 54.606 175.733C53.8433 175.71 53.2407 177.983 53.3017 180.805Z" fill="#3F3D56"/>
<path d="M123.922 169.197C101.04 128.277 72.2325 150.891 45.5298 146.185C52.5544 135.637 61.8672 122.358 62.0807 116.226C62.424 106.356 61.585 93.0241 64.1935 91.3843C66.802 89.7444 105.556 60.6391 125.501 51.1509C145.446 41.6627 256.642 44.7289 260.021 55.4221C263.4 66.1154 271.462 121.054 273.521 154.873C275.008 179.02 274.825 181.148 274.589 200.704C274.589 200.704 160.875 205.54 141.289 205.54C140.023 205.54 135.225 204.32 128.361 202.352C128.124 188.974 127.186 175.718 123.922 169.197Z" fill="#F36713"/>
<path d="M138.269 54.8882C142.28 51.6925 253.05 52.4247 256.39 53.2942C257.782 53.635 259.044 54.3746 260.021 55.4221C260.95 57.1796 261.703 59.0241 262.271 60.929C263.964 66.6884 265.299 72.5471 266.268 78.4714C268.205 90.5681 270.745 109.484 272.514 135.744C272.713 138.894 272.903 142.166 273.079 145.537C273.14 148.542 273.018 154.347 271.263 155.208C268.891 156.368 154.835 157.382 149.412 153.462C143.989 149.541 143.813 145.911 142.845 131.976C141.876 118.041 139.031 80.7291 137.506 72.8884C135.98 65.0476 134.279 58.084 138.269 54.8882Z" fill="url(#paint9_linear)"/>
<path d="M138.269 54.8882C142.28 51.6925 253.05 52.4247 256.39 53.2942C257.782 53.635 259.044 54.3746 260.021 55.4221C260.95 57.1796 261.703 59.0241 262.271 60.929C263.964 66.6884 265.299 72.5471 266.268 78.4714C268.205 90.5681 270.745 109.484 272.514 135.744C272.713 138.894 272.903 142.166 273.079 145.537C273.14 148.542 273.018 154.347 271.263 155.208C269.643 155.459 268.006 155.587 266.367 155.59C264.841 130.794 265.81 123.884 260.578 91.9487C256.513 73.2316 249.991 74.8638 240.694 74.8638C242.616 103.618 245.934 127.362 247.368 156.116C212.572 156.421 152.928 156.002 149.412 153.462C143.981 149.541 143.813 145.911 142.845 131.976C141.876 118.041 139.031 80.7291 137.506 72.8884C135.98 65.0476 134.279 58.084 138.269 54.8882Z" fill="url(#paint10_linear)"/>
<path d="M138.269 54.8882C142.281 51.6925 253.05 52.4247 256.391 53.2942C257.782 53.635 259.044 54.3746 260.021 55.4221C260.95 57.1796 261.703 59.0241 262.271 60.929C262.935 63.0188 263.675 65.818 264.46 69.3188L136.972 70.3409C135.645 63.568 134.691 57.7332 138.269 54.8882Z" fill="url(#paint11_linear)"/>
<path d="M260.547 182.239C260.547 182.239 267.541 180.538 270.737 169.166C274.276 162.736 275.588 173.506 275.313 181.72C275.108 187.738 264.437 187.998 261.218 187.357C258 186.716 256.848 183.993 260.547 182.239Z" fill="#3F3D56"/>
<path d="M258.701 183.62L258.801 183.498C259.25 182.993 259.812 182.602 260.44 182.354C262.463 181.703 264.259 180.492 265.619 178.86C267.832 176.39 269.463 173.455 270.394 170.272C272.995 167.503 273.963 175.611 273.742 181.949C273.559 187.021 263.957 187.243 261.058 186.701C258.907 186.266 257.786 184.901 258.701 183.62Z" fill="#3F3D56"/>
<path d="M268.373 174.978C269.212 173.475 269.89 171.887 270.394 170.242C272.316 168.19 273.346 172.11 273.666 176.854C272.72 175.52 270.295 175.047 268.373 174.978Z" fill="#F36713"/>
<path d="M240.77 48.7331C240.77 48.7331 141.617 48.7331 126.362 51.2425C117.972 53.2942 43.3101 97.5241 43.3101 97.5241L47.0092 91.3309C47.0092 91.3309 102.36 50.2891 121.961 42.517C141.563 34.7449 236.819 29.5432 240.77 48.7331Z" fill="#F36713"/>
<path style="mix-blend-mode:multiply" opacity="0.5" d="M240.77 48.7331C240.77 48.7331 141.617 48.7331 126.362 51.2425C117.972 53.2942 43.3101 97.5241 43.3101 97.5241L47.0092 91.3309C47.0092 91.3309 102.36 50.2891 121.961 42.517C141.563 34.7449 236.819 29.5432 240.77 48.7331Z" fill="url(#paint12_linear)"/>
<path d="M35.1644 168.426C35.2407 162.675 36.1636 126.034 36.5068 116.173C36.85 106.311 36.4687 102.039 39.0772 100.392C41.6857 98.7445 88.0207 66.2756 107.966 56.8255C127.911 47.3755 128.841 50.0602 132.213 60.7535C135.584 71.4468 139.367 117.706 140.511 145.148C141.579 170.905 141.274 210.574 141.274 210.574L120.512 204.099C120.619 201.765 120.65 199.324 120.596 196.815C120.23 179.448 116.066 165.269 111.284 165.139C106.501 165.009 102.894 178.998 103.298 196.365C103.298 197.127 103.344 197.943 103.374 198.721C89.2792 194.298 73.7503 189.378 61.2112 185.343C61.257 184.016 61.2722 182.636 61.2112 181.217C60.99 170.425 58.3968 161.615 55.4298 161.539C52.4629 161.463 50.2357 170.142 50.4645 180.935C50.4645 181.248 50.4645 181.56 50.4645 181.873L49.0611 181.415C49.0611 180.485 49.0611 179.531 49.0611 178.555C48.8552 168.953 46.5518 161.112 43.9128 161.013C41.2738 160.914 39.3365 168.64 39.4967 178.143C38.544 177.851 37.6178 177.478 36.728 177.03C34.8975 175.42 35.1263 174.185 35.1644 168.426Z" fill="#F36713"/>
<path d="M35.1644 168.426C35.2407 162.675 36.1636 126.034 36.5068 116.173C36.85 106.311 36.4687 102.039 39.0772 100.392C41.6857 98.7445 88.0207 66.2756 107.966 56.8255C127.911 47.3755 128.841 50.0602 132.213 60.7535C135.584 71.4468 139.367 117.706 140.511 145.148C141.579 170.905 141.274 210.574 141.274 210.574L120.512 204.099C120.619 201.765 120.65 199.324 120.596 196.815C120.23 179.448 116.066 165.269 111.284 165.139C106.501 165.009 102.894 178.998 103.298 196.365C103.298 197.127 103.344 197.943 103.374 198.721C89.2792 194.298 73.7503 189.378 61.2112 185.343C61.257 184.016 61.2722 182.636 61.2112 181.217C60.99 170.425 58.3968 161.615 55.4298 161.539C52.4629 161.463 50.2357 170.142 50.4645 180.935C50.4645 181.248 50.4645 181.56 50.4645 181.873L49.0611 181.415C49.0611 180.485 49.0611 179.531 49.0611 178.555C48.8552 168.953 46.5518 161.112 43.9128 161.013C41.2738 160.914 39.3365 168.64 39.4967 178.143C38.544 177.851 37.6178 177.478 36.728 177.03C34.8975 175.42 35.1263 174.185 35.1644 168.426Z" fill="url(#paint13_linear)"/>
<path d="M129.497 140.496C125.874 121.138 121.527 106.173 101.277 109.911C87.6623 112.443 53.2714 125.386 37.5518 131.557C37.5518 131.557 37.5518 127.224 37.6357 125.989C38.0628 117.34 37.7424 112.923 40.3814 111.657C43.0204 110.391 88.5165 80.2791 108.66 73.6663C128.803 67.0536 129.642 69.8527 132.777 81.0266C135.065 89.1114 137.14 115.89 138.33 140.518L129.528 140.671C129.521 140.612 129.511 140.553 129.497 140.496Z" fill="url(#paint14_linear)"/>
<path d="M133.433 140.61L129.528 140.671C129.531 140.613 129.531 140.554 129.528 140.496C128.751 135.96 127.733 131.468 126.477 127.041C129.65 130.428 131.778 135.126 133.433 140.61Z" fill="url(#paint15_linear)"/>
<g style="mix-blend-mode:multiply">
<g style="mix-blend-mode:multiply">
<path d="M90.0419 82.1401L90.4919 81.9113L91.3843 112.42L90.9342 112.55L90.0419 82.1401Z" fill="#CDCDCD"/>
</g>
<g style="mix-blend-mode:multiply">
<path d="M67.5112 94.9614L67.9612 94.6868L68.335 120.055L67.885 120.215L67.5112 94.9614Z" fill="#CDCDCD"/>
</g>
<g style="mix-blend-mode:multiply">
<path d="M50.0145 105.7L50.4645 105.418V126.607L50.0145 126.774V105.7Z" fill="#CDCDCD"/>
</g>
</g>
<path d="M275.092 189.325C275.092 189.325 274.581 190.774 266.947 190.919C259.312 191.064 143.989 192.803 140.099 190.614C140.046 197.951 139.458 210.566 141.304 211.428C143.592 212.504 261.119 210.81 266.55 210.078C271.981 209.346 274.017 208.484 274.696 203.404C275.375 198.325 275.092 189.325 275.092 189.325Z" fill="#F36713"/>
<path d="M275.092 189.325C275.092 189.325 274.581 190.774 266.947 190.919C259.312 191.064 143.989 192.803 140.099 190.614C140.046 197.951 139.458 210.566 141.304 211.428C143.592 212.504 261.119 210.81 266.55 210.078C271.981 209.346 274.017 208.484 274.696 203.404C275.375 198.325 275.092 189.325 275.092 189.325Z" fill="url(#paint16_linear)"/>
<g style="mix-blend-mode:multiply">
<path d="M120.772 140.122L118.262 70.8214L118.712 70.7146L123.289 195.259L139.008 199.835C139.298 172.614 138.246 147.612 137.918 140.496H138.375C138.757 148.702 140.015 179.127 139.29 209.903L138.84 209.75C138.912 206.811 138.962 203.885 138.993 200.971L123.334 196.395L123.647 205.052L123.189 204.877L122.839 196.304H122.793V195.724L120.81 141.296L99.263 143.203L100.155 197.745L99.6978 197.57L98.8054 143.241L80.3248 144.881L81.0875 191.743L80.6375 191.582L79.8748 144.919L63.2552 146.391L63.8959 186.251L63.4382 186.068L62.8052 146.407L35.6219 148.817V147.658L120.772 140.122Z" fill="#CDCDCD"/>
</g>
<path opacity="0.6" d="M134.905 140.579C134.905 140.259 134.844 139.939 134.821 139.618L133.25 114.601C132.922 109.369 134.066 105.006 135.904 103.878C136.88 114.807 137.719 127.941 138.329 140.488L134.905 140.579Z" fill="#191919"/>
<path d="M271.264 155.216C268.884 156.375 154.835 157.39 149.412 153.469C144.263 149.755 143.844 146.292 142.99 134.051C145.957 132.106 151.738 130.657 159.281 129.596C161.066 129.345 162.95 129.116 164.918 128.91C168.487 128.536 172.339 128.223 176.359 127.979L178.685 127.842C181.598 127.679 184.591 127.547 187.662 127.445L190.949 127.346C193.932 127.27 196.975 127.209 200.026 127.171C201.643 127.171 203.275 127.133 204.899 127.125H207.226C215.616 127.125 224.006 127.232 231.831 127.438C253.729 128.033 271.164 129.314 272.087 130.115C272.225 131.961 272.362 133.829 272.491 135.759C272.695 138.917 272.883 142.181 273.056 145.552C273.132 148.542 273.01 154.347 271.264 155.216Z" fill="url(#paint17_linear)"/>
<path d="M244.874 128.04C234.821 127.773 223.83 127.644 213.068 127.773L212.229 110.284C212.229 104.366 219.399 99.6063 228.185 99.6979C236.972 99.7894 244.088 104.625 244.057 110.551L244.874 128.04Z" fill="url(#paint18_linear)"/>
<path d="M190.972 127.339C179.142 127.667 168.03 128.361 159.281 129.627L158.305 109.354C158.305 103.435 165.475 98.6758 174.269 98.7597C183.063 98.8436 190.164 103.694 190.141 109.621L190.972 127.339Z" fill="url(#paint19_linear)"/>
<path d="M203.328 120.444C203.069 120.896 202.678 121.258 202.207 121.481C199.477 123.106 196.67 124.601 193.817 125.943C193.34 126.215 192.803 126.367 192.254 126.385C191.427 126.241 190.68 125.806 190.148 125.157C188.387 123.479 186.579 121.717 185.694 119.437C185.157 117.794 184.876 116.078 184.863 114.35C184.681 111.848 184.696 109.336 184.909 106.837C185.191 104.549 185.862 102.924 187.326 104.122C187.937 104.617 192.665 118.423 193.184 118.049L196.471 115.829C197.218 115.215 198.127 114.831 199.088 114.723C200.933 114.723 202.138 116.584 202.977 118.232C203.193 118.553 203.336 118.917 203.397 119.299C203.457 119.681 203.434 120.072 203.328 120.444Z" fill="#F36713"/>
<path d="M202.207 121.481C199.477 123.106 196.67 124.601 193.817 125.943C193.34 126.215 192.803 126.367 192.254 126.385C191.427 126.241 190.68 125.806 190.148 125.157C188.387 123.479 186.579 121.717 185.694 119.437C185.157 117.794 184.876 116.078 184.863 114.35C184.681 111.848 184.696 109.336 184.909 106.837C185.275 106.471 185.824 111.528 186.434 112.046C187.044 112.565 191.674 121.29 192.246 120.894C193.337 120.131 194.435 119.406 195.533 118.674C196.28 118.06 197.189 117.676 198.149 117.568C199.995 117.568 201.2 119.429 202.032 121.077C202.085 121.222 202.161 121.351 202.207 121.481Z" fill="url(#paint20_linear)"/>
<path d="M187.67 127.438C184.619 127.545 181.626 127.677 178.692 127.835L176.366 127.972C172.324 128.216 168.472 128.529 164.925 128.902C164.925 127.979 164.819 121.763 164.864 120.886C165.101 116.6 161.92 109.224 162.691 104.999C163.072 102.886 180.393 98.2411 185.145 101.696C186.074 102.294 186.821 103.135 187.304 104.129C187.648 105.216 187.724 106.37 187.525 107.493C187.204 110.78 186.892 114.052 186.579 117.34C186.495 118.125 187.304 123.533 187.67 127.438Z" fill="#F36713"/>
<path d="M187.67 127.438C184.619 127.545 181.626 127.677 178.693 127.835L177.32 127.911L176.366 127.972C172.324 128.216 168.472 128.529 164.925 128.902C164.925 127.979 164.819 121.763 164.864 120.886C164.872 119.345 164.696 117.809 164.338 116.31C163.53 112.42 162.157 107.966 162.691 105.029C163.072 102.917 180.393 98.2716 185.145 101.727C186.074 102.324 186.821 103.166 187.304 104.16C187.648 105.247 187.724 106.401 187.525 107.523C187.204 110.811 186.892 114.083 186.579 117.37C186.495 118.125 187.304 123.533 187.67 127.438Z" fill="url(#paint21_linear)"/>
<path d="M177.335 127.911L176.381 127.972C172.339 128.216 168.487 128.529 164.941 128.902C164.941 127.979 164.834 121.763 164.88 120.886C164.888 119.345 164.711 117.809 164.353 116.31C164.605 115.753 164.864 115.196 165.116 114.647C165.338 113.953 165.665 113.297 166.085 112.702C166.847 113.084 166.344 115.105 166.512 115.898C166.649 116.531 168.182 121.451 169.143 122.923C169.327 123.251 169.589 123.528 169.906 123.731C170.385 123.941 170.912 124.02 171.431 123.96C173.72 123.884 176.008 123.792 178.25 123.662C178.41 125.089 177.51 126.454 177.335 127.911Z" fill="url(#paint22_linear)"/>
<path d="M175.146 124.418C174.07 125.051 175.367 126.866 174.116 126.889C171.973 126.889 165.391 126.233 163.247 126.271C160.959 126.271 158.671 124.745 157.237 122.953C156.822 122.385 156.526 121.739 156.367 121.053C156.209 120.367 156.191 119.657 156.314 118.964C156.57 117.581 157.011 116.24 157.626 114.975C158.351 113.312 161.684 103.9 163.56 104.64C164.323 104.953 164.971 106.006 165.429 107.356C166.268 109.987 166.595 112.755 166.39 115.509C166.222 116.34 164.224 117.797 164.864 118.415C165.063 118.578 165.287 118.707 165.528 118.796C168.503 120.09 171.697 120.801 174.94 120.894C175.542 121.954 176.229 123.784 175.146 124.418Z" fill="#F36713"/>
<path d="M174.116 126.889C171.973 126.889 165.391 126.233 163.247 126.271C160.959 126.271 158.671 124.745 157.237 122.953C156.822 122.385 156.526 121.739 156.367 121.053C156.209 120.367 156.191 119.657 156.314 118.964C156.542 119.771 156.951 120.514 157.51 121.138C158.069 121.762 158.764 122.25 159.541 122.564C162.424 123.594 173.27 124.189 173.27 124.189L175.123 124.418C174.07 125.051 175.367 126.866 174.116 126.889Z" fill="url(#paint23_linear)"/>
<path d="M173.323 124.707C173.435 125.394 173.757 126.028 174.246 126.523C174.392 126.358 174.485 126.153 174.513 125.935C174.639 125.485 174.666 125.013 174.594 124.551C174.522 124.089 174.351 123.648 174.093 123.258C173.178 122.061 173.216 124.12 173.323 124.707Z" fill="#191919"/>
<path d="M172.469 99.225C172.392 100.697 172.469 102.276 173.43 103.428C173.978 104.014 174.647 104.474 175.39 104.778C176.078 105.139 176.84 105.335 177.617 105.35C178.005 105.349 178.385 105.242 178.716 105.041C179.047 104.839 179.316 104.55 179.493 104.206C179.948 103.047 180.087 101.789 179.898 100.56C179.455 99.1487 179.387 97.6004 178.662 96.3038C177.937 95.0072 175.359 94.7783 173.712 94.8851C172.949 94.9385 172.591 95.1826 172.507 95.93C172.415 96.9826 172.53 98.1572 172.469 99.225Z" fill="url(#paint24_linear)"/>
<path d="M175.192 101.292C175.648 102.355 176.42 103.253 177.404 103.862C177.771 104.092 178.191 104.224 178.624 104.244C178.841 104.252 179.057 104.211 179.256 104.122C179.454 104.033 179.629 103.9 179.768 103.733C180.013 103.311 180.118 102.822 180.065 102.337V98.8284C180.083 98.583 180.041 98.3371 179.943 98.1114C179.828 97.945 179.679 97.8051 179.505 97.7012C179.332 97.5972 179.138 97.5317 178.937 97.5089C177.854 97.2419 175.779 96.7461 174.871 97.6767C173.964 98.6072 174.765 100.346 175.192 101.292Z" fill="url(#paint25_linear)"/>
<path d="M185.122 96.3343C185.008 98.1114 184.573 100.148 183.017 100.979C182.41 101.277 181.748 101.448 181.072 101.483C179.415 101.697 177.731 101.449 176.206 100.766C174.534 99.8517 173.252 98.3606 172.598 96.5707C171.962 94.7925 171.652 92.9141 171.683 91.0258C171.683 88.3334 172.217 85.2139 174.559 83.8944C175.491 83.4195 176.518 83.1589 177.564 83.1317C179.92 82.9867 185.282 82.8037 184.977 86.1368C184.672 89.4698 185.382 92.8868 185.122 96.3343Z" fill="url(#paint26_linear)"/>
<path d="M185.382 82.0944C185.157 81.4536 184.796 80.8693 184.323 80.382C183.85 79.8947 183.277 79.5161 182.644 79.2723C181.501 78.9223 180.301 78.8031 179.112 78.9215C177.884 78.9748 176.656 79.0359 175.428 79.1121C174.051 79.1135 172.687 79.3883 171.416 79.9206C170.776 80.2004 170.254 80.6974 169.944 81.324C169.796 81.8248 169.679 82.3343 169.593 82.8494C169.41 83.5054 169.014 84.0851 168.831 84.7257C168.564 85.9993 168.667 87.3225 169.128 88.5393C169.662 90.4461 170.28 92.4826 171.843 93.6877C171.508 92.654 171.551 91.5347 171.965 90.53C172.304 90.7895 172.587 91.1154 172.795 91.4879C173.004 91.8604 173.134 92.2715 173.178 92.6961C173.56 92.6961 173.628 92.1393 173.59 91.758C173.409 90.6822 173.33 89.5918 173.354 88.5012C173.37 87.954 173.503 87.4168 173.745 86.9259C173.988 86.435 174.333 86.002 174.757 85.6562C176.138 84.6647 178.029 85.1529 179.699 85.4503C180.996 85.6868 183.406 86.213 184.672 85.6944C185.938 85.1757 185.771 83.1927 185.382 82.0944Z" fill="#3F3D56"/>
<path d="M207.249 127.11H204.922C204.335 121.062 198.691 116.31 191.842 116.31C184.718 116.31 178.876 121.451 178.708 127.827C177.945 127.873 177.182 127.911 176.381 127.964C176.496 120.245 183.383 113.991 191.842 113.991C199.98 114.029 206.669 119.788 207.249 127.11Z" fill="#191919"/>
<g opacity="0.5">
<g opacity="0.5">
<path opacity="0.5" d="M138.36 121.084C139.283 125.241 144.18 128.445 149.297 128.239C154.415 128.025 157.817 124.486 156.925 120.329L153.111 103.222C152.188 99.0648 147.292 95.8614 142.174 96.075C137.056 96.2809 133.654 99.8199 134.547 103.977L138.36 121.084Z" fill="#191919"/>
<path opacity="0.5" d="M118.468 121.893C119.391 126.05 129.406 145.842 134.531 145.629L138.345 144.05C143.463 143.836 143.066 141.884 142.158 137.727L133.234 104.038C132.312 99.8733 127.415 96.6699 122.297 96.8834C117.172 97.0894 113.778 100.628 114.67 104.785L118.468 121.893Z" fill="#191919"/>
<path opacity="0.5" d="M105.479 123.945C106.448 127.568 109.293 130.046 111.879 129.535C114.441 129.009 115.73 125.645 114.762 122.023L110.765 107.165C109.796 103.542 106.951 101.063 104.366 101.567C101.803 102.1 100.514 105.464 101.483 109.087L105.479 123.945Z" fill="#191919"/>
<path opacity="0.5" d="M95.5105 126.012C96.4868 129.627 99.3241 132.113 101.91 131.602C104.472 131.076 105.769 127.705 104.793 124.09L100.804 109.194C99.8351 105.571 96.9902 103.092 94.3969 103.595C91.8342 104.129 90.5834 107.493 91.5139 111.116L95.5105 126.012Z" fill="#191919"/>
<path opacity="0.5" d="M85.6408 127.125C86.4874 130.29 88.9968 132.464 91.2392 132.022C93.4816 131.557 94.6104 128.605 93.7638 125.44L90.2705 112.397C89.4163 109.224 86.9069 107.058 84.6645 107.5C82.4222 107.966 81.2857 110.91 82.14 114.083L85.6408 127.125Z" fill="#191919"/>
<path opacity="0.5" d="M76.8009 129.657C77.6552 132.83 80.1569 134.996 82.3993 134.554C84.6874 134.089 85.7781 131.145 84.9239 127.972L81.4306 114.929C80.584 111.764 78.0747 109.59 75.8247 110.033C73.5823 110.498 72.4534 113.442 73.3001 116.615L76.8009 129.657Z" fill="#191919"/>
<path opacity="0.5" d="M68.8841 133.753C69.7536 137.01 72.3316 139.268 74.6426 138.787C76.9307 138.307 78.113 135.279 77.2358 132.022L73.6434 118.606C72.7663 115.341 70.1883 113.091 67.8773 113.572C65.5891 114.045 64.4069 117.08 65.2841 120.337L68.8841 133.753Z" fill="#191919"/>
<path opacity="0.5" d="M59.6857 136.85C60.5628 140.107 63.1408 142.357 65.4518 141.884C67.74 141.403 68.9146 138.375 68.0451 135.118L64.445 121.702C63.5755 118.445 60.9899 116.195 58.6865 116.668C56.3984 117.149 55.2162 120.177 56.0857 123.434L59.6857 136.85Z" fill="#191919"/>
<path opacity="0.5" d="M51.3035 138.619C52.0662 141.396 54.2323 143.302 56.1925 142.898C58.1603 142.494 59.1442 139.924 58.3968 137.155L55.3459 125.76C54.5832 122.991 52.4094 121.077 50.4493 121.481C48.4891 121.885 47.5052 124.456 48.245 127.232L51.3035 138.619Z" fill="#191919"/>
<path opacity="0.5" d="M42.2196 140.129C42.6162 142.967 44.5687 145.133 46.5594 144.965C48.5501 144.797 49.8467 142.364 49.4425 139.519L47.7798 127.842C47.3755 125.005 45.4306 122.839 43.4323 123.006C41.4416 123.174 40.1526 125.615 40.5492 128.452L42.2196 140.129Z" fill="#191919"/>
</g>
</g>
<path d="M173.399 182.354C173.399 182.354 160.433 179.592 151.898 172.194C145.171 166.382 141.487 176.122 143.18 183.513C144.874 190.904 163.819 189.18 169.936 188.593C176.053 188.005 176.992 183.322 173.399 182.354Z" fill="#3F3D56"/>
<path d="M171.996 182.376C171.996 182.376 159.861 180.012 151.83 173.681C145.522 168.708 142.059 177.045 143.653 183.368C145.247 189.691 163.011 188.211 168.747 187.715C174.482 187.22 175.367 183.2 171.996 182.376Z" fill="#3F3D56"/>
<path d="M143.783 183.742C143.732 183.62 143.688 183.495 143.653 183.368C142.059 177.045 145.522 168.708 151.83 173.681C152.524 174.223 153.241 174.742 153.988 175.207C148.885 176.404 145.171 179.394 143.783 183.742Z" fill="#F36713"/>
<path d="M149.984 182.498C149.984 185.008 151.738 187.075 153.897 187.075C156.055 187.075 157.809 185.038 157.809 182.498C157.809 179.959 156.055 177.922 153.897 177.922C151.738 177.922 149.984 179.989 149.984 182.498Z" fill="#F36713"/>
<path d="M160.784 183.986C160.784 185.885 162.111 187.418 163.743 187.418C165.375 187.418 166.695 185.893 166.695 183.986C166.695 182.079 165.375 180.553 163.743 180.553C162.111 180.553 160.784 182.087 160.784 183.986Z" fill="#F36713"/>
<path d="M273.773 180.767C273.773 182.735 272.408 184.329 270.722 184.329C269.036 184.329 267.671 182.735 267.671 180.767C267.671 178.799 269.036 177.198 270.722 177.198C272.408 177.198 273.773 178.799 273.773 180.767Z" fill="#F36713"/>
<path d="M267.671 183.231C267.601 183.67 267.407 184.08 267.111 184.412C266.815 184.744 266.43 184.985 266.001 185.105C265.573 185.225 265.119 185.219 264.694 185.089C264.268 184.959 263.889 184.71 263.601 184.371C263.313 184.032 263.128 183.618 263.069 183.177C263.009 182.736 263.077 182.287 263.264 181.884C263.452 181.48 263.751 181.139 264.127 180.901C264.502 180.662 264.938 180.536 265.383 180.538C266.041 180.598 266.649 180.914 267.077 181.417C267.504 181.921 267.718 182.572 267.671 183.231Z" fill="#F36713"/>
<path d="M268.373 174.978C269.212 173.475 269.89 171.887 270.394 170.242C272.316 168.19 273.346 172.11 273.666 176.854C272.72 175.52 270.295 175.047 268.373 174.978Z" fill="url(#paint27_linear)"/>
<path d="M143.783 183.742C143.732 183.62 143.688 183.495 143.653 183.368C142.059 177.045 145.522 168.708 151.83 173.681C152.524 174.223 153.241 174.742 153.988 175.207C148.885 176.404 145.171 179.394 143.783 183.742Z" fill="url(#paint28_linear)"/>
<path d="M149.984 182.498C149.984 185.008 151.738 187.075 153.897 187.075C156.055 187.075 157.809 185.038 157.809 182.498C157.809 179.959 156.055 177.922 153.897 177.922C151.738 177.922 149.984 179.989 149.984 182.498Z" fill="url(#paint29_linear)"/>
<path d="M160.784 183.986C160.784 185.885 162.111 187.418 163.743 187.418C165.375 187.418 166.695 185.893 166.695 183.986C166.695 182.079 165.375 180.553 163.743 180.553C162.111 180.553 160.784 182.087 160.784 183.986Z" fill="url(#paint30_linear)"/>
<path d="M273.773 180.767C273.773 182.735 272.408 184.329 270.722 184.329C269.036 184.329 267.671 182.735 267.671 180.767C267.671 178.799 269.036 177.198 270.722 177.198C272.408 177.198 273.773 178.799 273.773 180.767Z" fill="url(#paint31_linear)"/>
<path d="M267.671 183.231C267.601 183.67 267.407 184.08 267.111 184.412C266.815 184.744 266.43 184.985 266.001 185.105C265.573 185.225 265.119 185.219 264.694 185.089C264.268 184.959 263.889 184.71 263.601 184.371C263.313 184.032 263.128 183.618 263.069 183.177C263.009 182.736 263.077 182.287 263.264 181.884C263.452 181.48 263.751 181.139 264.127 180.901C264.502 180.662 264.938 180.536 265.383 180.538C266.041 180.598 266.649 180.914 267.077 181.417C267.504 181.921 267.718 182.572 267.671 183.231Z" fill="url(#paint32_linear)"/>
<path d="M127.56 156.818C127.56 157.062 127.476 157.252 127.377 157.237L124.791 156.917C124.692 156.917 124.616 156.696 124.616 156.452V155.414C124.616 155.17 124.692 154.987 124.791 155.002L127.385 155.323C127.484 155.323 127.56 155.536 127.56 155.78V156.818Z" fill="url(#paint33_linear)"/>
<path d="M89.6225 186.022C89.6225 186.205 89.5614 186.343 89.4852 186.335L87.5631 186.098C87.4869 186.098 87.4335 185.931 87.4335 185.755V184.992C87.4335 184.809 87.4945 184.672 87.5631 184.68L89.4928 184.924C89.5614 184.924 89.6225 185.084 89.6225 185.267V186.022Z" fill="url(#paint34_linear)"/>
<path d="M71.7825 182.575C71.7825 182.72 71.7367 182.834 71.6757 182.826L70.0969 182.674C70.0359 182.674 69.9901 182.537 69.9901 182.392V181.759C69.9901 181.606 70.0359 181.499 70.0969 181.507L71.6757 181.698C71.7367 181.698 71.7825 181.835 71.7825 181.98V182.575Z" fill="url(#paint35_linear)"/>
<path opacity="0.18" d="M182.682 52.4857L247.368 156.116L271.263 155.201L212.351 53.4162L182.682 52.4857Z" fill="#F36713"/>
<path opacity="0.18" d="M56.2839 102.398L73.6357 118.613L95.5334 111.36L73.59 91.5826L56.2839 102.398Z" fill="#F36713"/>
<path d="M242.021 172.858H193.497V187.693H242.021V172.858Z" fill="url(#paint36_linear)"/>
<path d="M149.534 163.171C149.395 162.313 149.436 161.435 149.656 160.593C153.157 170.684 180.981 178.685 213.35 178.685C244.111 178.685 268.266 171.447 270.638 162.073C270.761 162.426 270.856 162.788 270.92 163.156C272.743 173.742 247.04 182.338 213.526 182.338C180.012 182.338 151.364 173.765 149.534 163.171Z" fill="url(#paint37_linear)"/>
<path d="M197.989 114.563C197.648 114.758 197.347 115.017 197.104 115.326C196.859 115.796 196.739 116.321 196.754 116.851C196.686 117.231 196.754 117.622 196.944 117.957C197.181 118.262 197.753 118.301 197.89 117.957C197.907 118.161 197.969 118.359 198.072 118.536C198.175 118.713 198.316 118.864 198.485 118.979C198.657 119.089 198.864 119.132 199.065 119.101C199.267 119.07 199.451 118.967 199.583 118.812C199.503 119.202 199.559 119.609 199.743 119.963C199.972 120.291 200.56 120.36 200.727 120.001C200.804 120.413 200.956 120.909 201.36 121.008C201.504 121.03 201.651 121.013 201.785 120.957C201.919 120.902 202.036 120.812 202.123 120.695C202.295 120.459 202.438 120.203 202.55 119.933C202.587 119.855 202.642 119.786 202.71 119.734C202.805 119.708 202.905 119.708 203 119.734C203.218 119.757 203.438 119.757 203.656 119.734C203.763 119.73 203.865 119.69 203.946 119.62C203.987 119.55 204.011 119.472 204.015 119.391C204.099 118.27 203.252 117.347 202.649 116.34C202.205 115.539 201.538 114.884 200.727 114.456C200.357 114.187 199.929 114.009 199.477 113.938C198.931 113.999 198.414 114.216 197.989 114.563Z" fill="url(#paint38_linear)"/>
<path d="M175.222 120.894C174.76 121.098 174.35 121.403 174.02 121.785C173.69 122.168 173.449 122.619 173.315 123.106C173.204 123.6 173.293 124.119 173.563 124.548C173.833 124.977 174.263 125.281 174.757 125.394C175.233 125.395 175.707 125.321 176.16 125.173C177.182 124.951 178.319 125.058 179.211 124.494L179.493 124.898C179.74 124.931 179.992 124.892 180.217 124.787C180.443 124.681 180.634 124.514 180.767 124.303C181.065 123.906 181.232 123.418 181.53 123.006C181.827 122.595 182.232 122.175 182.491 121.695C182.625 121.442 182.708 121.165 182.735 120.879C182.761 120.594 182.731 120.306 182.645 120.033C182.559 119.76 182.419 119.506 182.235 119.287C182.05 119.068 181.823 118.889 181.568 118.758C181.255 118.636 180.922 118.579 180.586 118.588C180.251 118.597 179.921 118.673 179.615 118.812C178.906 119.101 178.387 119.681 177.716 119.994C176.915 120.367 176.015 120.459 175.222 120.894Z" fill="url(#paint39_linear)"/>
<path d="M166.39 115.509C166.222 116.34 164.224 117.797 164.864 118.415C164.432 118.31 164.027 118.111 163.679 117.833C163.331 117.555 163.049 117.205 162.851 116.806C162.424 115.921 163.194 114.601 164.277 112.443C164.973 110.804 165.341 109.045 165.36 107.264L165.452 107.356C166.284 109.988 166.602 112.756 166.39 115.509Z" fill="url(#paint40_linear)"/>
<path d="M168.655 102.398L171.286 110.589L175.535 110.353C175.535 110.353 172.575 100.537 172.484 99.225C172.392 97.9131 168.426 99.1487 168.655 102.398Z" fill="white"/>
<path d="M180.592 109.628C182.085 109.728 183.583 109.689 185.069 109.514C184.886 106.753 183.627 104.175 182.384 101.719C182.357 101.648 182.312 101.585 182.254 101.536C182.171 101.488 182.076 101.467 181.98 101.475H180.798C180.556 101.443 180.31 101.488 180.096 101.605C179.638 101.902 180.294 104.579 180.348 105.182C180.477 106.631 180.561 108.134 180.592 109.628Z" fill="white"/>
<defs>
<linearGradient id="paint0_linear" x1="189.584" y1="86.3579" x2="109.85" y2="303.313" gradientUnits="userSpaceOnUse">
<stop offset="0.01"/>
<stop offset="0.83" stop-opacity="0.07"/>
<stop offset="1" stop-opacity="0"/>
</linearGradient>
<linearGradient id="paint1_linear" x1="-25909.6" y1="8025.5" x2="-26192.9" y2="8025.5" gradientUnits="userSpaceOnUse">
<stop offset="0.01"/>
<stop offset="0.83" stop-opacity="0.07"/>
<stop offset="1" stop-opacity="0"/>
</linearGradient>
<linearGradient id="paint2_linear" x1="46.3001" y1="178.494" x2="40.9535" y2="178.494" gradientUnits="userSpaceOnUse">
<stop stop-color="white"/>
<stop offset="0.43" stop-color="#FDFDFD"/>
<stop offset="0.68" stop-color="#F5F5F5"/>
<stop offset="0.87" stop-color="#E7E7E8"/>
<stop offset="0.97" stop-color="#DDDEDF"/>
</linearGradient>
<linearGradient id="paint3_linear" x1="-51699" y1="14700.8" x2="-54434.5" y2="14960.9" gradientUnits="userSpaceOnUse">
<stop offset="0.01"/>
<stop offset="0.83" stop-opacity="0.07"/>
<stop offset="1" stop-opacity="0"/>
</linearGradient>
<linearGradient id="paint4_linear" x1="16726.1" y1="8901.78" x2="16839.9" y2="8901.78" gradientUnits="userSpaceOnUse">
<stop stop-color="white"/>
<stop offset="0.43" stop-color="#FDFDFD"/>
<stop offset="0.68" stop-color="#F5F5F5"/>
<stop offset="0.87" stop-color="#E7E7E8"/>
<stop offset="0.97" stop-color="#DDDEDF"/>
</linearGradient>
<linearGradient id="paint5_linear" x1="-46661.2" y1="14696.9" x2="-49394.3" y2="14956.7" gradientUnits="userSpaceOnUse">
<stop offset="0.01"/>
<stop offset="0.83" stop-opacity="0.07"/>
<stop offset="1" stop-opacity="0"/>
</linearGradient>
<linearGradient id="paint6_linear" x1="15292.7" y1="8901.78" x2="15406.5" y2="8901.78" gradientUnits="userSpaceOnUse">
<stop stop-color="white"/>
<stop offset="0.43" stop-color="#FDFDFD"/>
<stop offset="0.68" stop-color="#F5F5F5"/>
<stop offset="0.87" stop-color="#E7E7E8"/>
<stop offset="0.97" stop-color="#DDDEDF"/>
</linearGradient>
<linearGradient id="paint7_linear" x1="-32691.8" y1="8853.64" x2="-33141.2" y2="8853.64" gradientUnits="userSpaceOnUse">
<stop offset="0.01"/>
<stop offset="0.83" stop-opacity="0.07"/>
<stop offset="1" stop-opacity="0"/>
</linearGradient>
<linearGradient id="paint8_linear" x1="10904.6" y1="5247.07" x2="10949.3" y2="5247.07" gradientUnits="userSpaceOnUse">
<stop stop-color="white"/>
<stop offset="0.43" stop-color="#FDFDFD"/>
<stop offset="0.68" stop-color="#F5F5F5"/>
<stop offset="0.87" stop-color="#E7E7E8"/>
<stop offset="0.97" stop-color="#DDDEDF"/>
</linearGradient>
<linearGradient id="paint9_linear" x1="-246273" y1="12217.7" x2="-203535" y2="21043.7" gradientUnits="userSpaceOnUse">
<stop offset="0.01"/>
<stop offset="0.83" stop-opacity="0.07"/>
<stop offset="1" stop-opacity="0"/>
</linearGradient>
<linearGradient id="paint10_linear" x1="-228894" y1="5239.36" x2="-227698" y2="19488.7" gradientUnits="userSpaceOnUse">
<stop offset="0.01"/>
<stop offset="0.83" stop-opacity="0.07"/>
<stop offset="1" stop-opacity="0"/>
</linearGradient>
<linearGradient id="paint11_linear" x1="-213262" y1="2064.64" x2="-213296" y2="1033.69" gradientUnits="userSpaceOnUse">
<stop offset="0.01"/>
<stop offset="0.83" stop-opacity="0.07"/>
<stop offset="1" stop-opacity="0"/>
</linearGradient>
<linearGradient id="paint12_linear" x1="111.772" y1="64.59" x2="197.074" y2="78.0367" gradientUnits="userSpaceOnUse">
<stop stop-color="#2B2B2B"/>
<stop offset="0.22" stop-color="#2E2E2E"/>
<stop offset="0.41" stop-color="#383939"/>
<stop offset="0.6" stop-color="#494A4B"/>
<stop offset="0.77" stop-color="#616264"/>
<stop offset="0.94" stop-color="#7F8184"/>
<stop offset="1" stop-color="#8D8F92"/>
</linearGradient>
<linearGradient id="paint13_linear" x1="-192931" y1="47121.6" x2="-187668" y2="22226.9" gradientUnits="userSpaceOnUse">
<stop offset="0.01"/>
<stop offset="0.83" stop-opacity="0.07"/>
<stop offset="1" stop-opacity="0"/>
</linearGradient>
<linearGradient id="paint14_linear" x1="-183477" y1="5665.02" x2="-182136" y2="16296.2" gradientUnits="userSpaceOnUse">
<stop offset="0.01"/>
<stop offset="0.83" stop-opacity="0.07"/>
<stop offset="1" stop-opacity="0"/>
</linearGradient>
<linearGradient id="paint15_linear" x1="124.09" y1="92.2766" x2="121.725" y2="75.474" gradientUnits="userSpaceOnUse">
<stop stop-color="white" stop-opacity="0"/>
<stop offset="0.12" stop-color="white" stop-opacity="0.04"/>
<stop offset="0.33" stop-color="white" stop-opacity="0.14"/>
<stop offset="0.59" stop-color="white" stop-opacity="0.3"/>
<stop offset="0.89" stop-color="white" stop-opacity="0.52"/>
<stop offset="1" stop-color="white" stop-opacity="0.6"/>
</linearGradient>
<linearGradient id="paint16_linear" x1="-222188" y1="7313.44" x2="-222277" y2="4303.67" gradientUnits="userSpaceOnUse">
<stop offset="0.01"/>
<stop offset="0.83" stop-opacity="0.07"/>
<stop offset="1" stop-opacity="0"/>
</linearGradient>
<linearGradient id="paint17_linear" x1="24653.2" y1="5611.33" x2="46841.4" y2="5611.33" gradientUnits="userSpaceOnUse">
<stop offset="0.01"/>
<stop offset="0.83" stop-opacity="0.07"/>
<stop offset="1" stop-opacity="0"/>
</linearGradient>
<linearGradient id="paint18_linear" x1="9324.88" y1="4402.01" x2="10722.1" y2="4402.01" gradientUnits="userSpaceOnUse">
<stop offset="0.01"/>
<stop offset="0.83" stop-opacity="0.07"/>
<stop offset="1" stop-opacity="0"/>
</linearGradient>
<linearGradient id="paint19_linear" x1="6749.56" y1="4236.03" x2="9240.11" y2="6350" gradientUnits="userSpaceOnUse">
<stop offset="0.01"/>
<stop offset="0.83" stop-opacity="0.07"/>
<stop offset="1" stop-opacity="0"/>
</linearGradient>
<linearGradient id="paint20_linear" x1="4364.31" y1="3305.69" x2="4638.59" y2="3126.6" gradientUnits="userSpaceOnUse">
<stop offset="0.01"/>
<stop offset="0.83" stop-opacity="0.07"/>
<stop offset="1" stop-opacity="0"/>
</linearGradient>
<linearGradient id="paint21_linear" x1="5839.97" y1="5268.6" x2="6021.03" y2="4293.49" gradientUnits="userSpaceOnUse">
<stop offset="0.01"/>
<stop offset="0.83" stop-opacity="0.07"/>
<stop offset="1" stop-opacity="0"/>
</linearGradient>
<linearGradient id="paint22_linear" x1="3128.68" y1="3014.47" x2="3424.85" y2="2645.21" gradientUnits="userSpaceOnUse">
<stop offset="0.01"/>
<stop offset="0.83" stop-opacity="0.07"/>
<stop offset="1" stop-opacity="0"/>
</linearGradient>
<linearGradient id="paint23_linear" x1="4407.14" y1="1609.9" x2="4369" y2="1278.26" gradientUnits="userSpaceOnUse">
<stop offset="0.01"/>
<stop offset="0.83" stop-opacity="0.07"/>
<stop offset="1" stop-opacity="0"/>
</linearGradient>
<linearGradient id="paint24_linear" x1="172.446" y1="100.102" x2="180.004" y2="100.102" gradientUnits="userSpaceOnUse">
<stop stop-color="#E5C5D5"/>
<stop offset="0.42" stop-color="#EAD4D1"/>
<stop offset="1" stop-color="#F0E9CB"/>
</linearGradient>
<linearGradient id="paint25_linear" x1="1498.55" y1="969.84" x2="1468.92" y2="1098.74" gradientUnits="userSpaceOnUse">
<stop offset="0.01"/>
<stop offset="0.83" stop-opacity="0.07"/>
<stop offset="1" stop-opacity="0"/>
</linearGradient>
<linearGradient id="paint26_linear" x1="3223.08" y1="2366.86" x2="3461.75" y2="2366.86" gradientUnits="userSpaceOnUse">
<stop stop-color="#E5C5D5"/>
<stop offset="0.42" stop-color="#EAD4D1"/>
<stop offset="1" stop-color="#F0E9CB"/>
</linearGradient>
<linearGradient id="paint27_linear" x1="268.373" y1="173.27" x2="273.666" y2="173.27" gradientUnits="userSpaceOnUse">
<stop offset="0.02" stop-color="white" stop-opacity="0"/>
<stop offset="0.39" stop-color="white" stop-opacity="0.39"/>
<stop offset="1" stop-color="white"/>
</linearGradient>
<linearGradient id="paint28_linear" x1="2167.15" y1="2901.55" x2="2317.88" y2="2901.55" gradientUnits="userSpaceOnUse">
<stop offset="0.02" stop-color="white" stop-opacity="0"/>
<stop offset="0.39" stop-color="white" stop-opacity="0.39"/>
<stop offset="1" stop-color="white"/>
</linearGradient>
<linearGradient id="paint29_linear" x1="1696.22" y1="2390.75" x2="1776.51" y2="2390.75" gradientUnits="userSpaceOnUse">
<stop offset="0.02" stop-color="white" stop-opacity="0"/>
<stop offset="0.39" stop-color="white" stop-opacity="0.39"/>
<stop offset="1" stop-color="white"/>
</linearGradient>
<linearGradient id="paint30_linear" x1="1412.45" y1="1853.56" x2="1458.26" y2="1853.56" gradientUnits="userSpaceOnUse">
<stop offset="0.02" stop-color="white" stop-opacity="0"/>
<stop offset="0.39" stop-color="white" stop-opacity="0.39"/>
<stop offset="1" stop-color="white"/>
</linearGradient>
<linearGradient id="paint31_linear" x1="2414.93" y1="1885.17" x2="2463.63" y2="1885.17" gradientUnits="userSpaceOnUse">
<stop offset="0.02" stop-color="white" stop-opacity="0"/>
<stop offset="0.39" stop-color="white" stop-opacity="0.39"/>
<stop offset="1" stop-color="white"/>
</linearGradient>
<linearGradient id="paint32_linear" x1="1864.34" y1="1309.86" x2="1892.26" y2="1309.86" gradientUnits="userSpaceOnUse">
<stop offset="0.02" stop-color="white" stop-opacity="0"/>
<stop offset="0.39" stop-color="white" stop-opacity="0.39"/>
<stop offset="1" stop-color="white"/>
</linearGradient>
<linearGradient id="paint33_linear" x1="-2413.57" y1="602.71" x2="-2413.87" y2="608.879" gradientUnits="userSpaceOnUse">
<stop offset="0.01"/>
<stop offset="0.83" stop-opacity="0.07"/>
<stop offset="1" stop-opacity="0"/>
</linearGradient>
<linearGradient id="paint34_linear" x1="-1638.63" y1="572.57" x2="-1638.8" y2="575.955" gradientUnits="userSpaceOnUse">
<stop offset="0.01"/>
<stop offset="0.83" stop-opacity="0.07"/>
<stop offset="1" stop-opacity="0"/>
</linearGradient>
<linearGradient id="paint35_linear" x1="235.033" y1="444.631" x2="238.449" y2="552.427" gradientUnits="userSpaceOnUse">
<stop offset="0.01"/>
<stop offset="0.83" stop-opacity="0.07"/>
<stop offset="1" stop-opacity="0"/>
</linearGradient>
<linearGradient id="paint36_linear" x1="14171.3" y1="4781.75" x2="14147.4" y2="3161.32" gradientUnits="userSpaceOnUse">
<stop offset="0.01"/>
<stop offset="0.83" stop-opacity="0.07"/>
<stop offset="1" stop-opacity="0"/>
</linearGradient>
<linearGradient id="paint37_linear" x1="-201876" y1="4228.22" x2="-201700" y2="6646.36" gradientUnits="userSpaceOnUse">
<stop offset="0.01"/>
<stop offset="0.83" stop-opacity="0.07"/>
<stop offset="1" stop-opacity="0"/>
</linearGradient>
<linearGradient id="paint38_linear" x1="2084.6" y1="1222.03" x2="2154.24" y2="1222.03" gradientUnits="userSpaceOnUse">
<stop stop-color="#E5C5D5"/>
<stop offset="0.42" stop-color="#EAD4D1"/>
<stop offset="1" stop-color="#F0E9CB"/>
</linearGradient>
<linearGradient id="paint39_linear" x1="2335.07" y1="1224.12" x2="2452" y2="1224.12" gradientUnits="userSpaceOnUse">
<stop stop-color="#E5C5D5"/>
<stop offset="0.42" stop-color="#EAD4D1"/>
<stop offset="1" stop-color="#F0E9CB"/>
</linearGradient>
<linearGradient id="paint40_linear" x1="1001.77" y1="1846.58" x2="945.457" y2="1833.94" gradientUnits="userSpaceOnUse">
<stop offset="0.01"/>
<stop offset="0.83" stop-opacity="0.07"/>
<stop offset="1" stop-opacity="0"/>
</linearGradient>
</defs>
</svg>
